<svg width="131" height="40" viewBox="0 0 131 40" fill="none" xmlns="http://www.w3.org/2000/svg">
<g clip-path="url(#clip0_12838_29267)">
<path d="M32.2781 32.7065V19.3694C32.2781 19.2323 32.166 19.1202 32.0289 19.1202H28.3205C28.1834 19.1202 28.0713 19.008 28.0713 18.871V14.6317C28.0713 14.4946 28.1834 14.3825 28.3205 14.3825H32.0289C32.166 14.3825 32.2781 14.2703 32.2781 14.1333V8.5395C32.2781 8.40243 32.3903 8.29028 32.5274 8.29028H38.1697C38.3068 8.29028 38.419 8.40243 38.419 8.5395V14.1333C38.419 14.2703 38.5311 14.3825 38.6682 14.3825H43.9716C44.1087 14.3825 44.2208 14.4946 44.2208 14.6317V18.871C44.2208 19.008 44.1087 19.1202 43.9716 19.1202H38.6682C38.5311 19.1202 38.419 19.2323 38.419 19.3694V31.4978C38.419 34.1569 39.2414 34.5918 41.2227 34.5918H43.9716C44.1087 34.5918 44.2208 34.704 44.2208 34.8411V39.1414C44.2208 39.2747 44.1161 39.3831 43.9841 39.3906C42.3342 39.4753 41.2725 39.4753 39.2414 39.4753C34.9859 39.4741 32.2781 38.218 32.2781 32.7065Z" fill="black"/>
<path d="M44.8281 26.7588C44.8281 18.8784 50.7745 13.8018 58.0269 13.8018C65.3278 13.8018 71.1783 18.7812 71.1783 26.7588C71.1783 34.7849 65.2792 39.9575 58.0269 39.9575C50.6786 39.9575 44.8281 34.8821 44.8281 26.7588ZM64.797 26.7588C64.797 22.2142 62.0406 19.0229 58.0281 19.0229C53.9185 19.0229 51.2107 22.1656 51.2107 26.7588C51.2107 31.4965 53.9671 34.7363 58.0281 34.7363C62.0406 34.7363 64.797 31.5451 64.797 26.7588Z" fill="black"/>
<path d="M86.5532 39.9575C79.4454 39.9575 73.499 35.0255 73.499 26.7102C73.499 18.7812 79.6398 13.8005 86.3115 13.8005C93.0803 13.8005 98.8822 18.3937 98.8822 27.2896V28.3937C98.8822 28.5308 98.7701 28.6429 98.633 28.6429H80.0697C79.9165 28.6429 79.7993 28.7812 79.823 28.9332C80.4099 32.7276 83.2548 35.0741 86.7451 35.0741C89.0205 35.0741 91.2947 34.3314 92.4772 32.2068C92.5221 32.127 92.6043 32.0759 92.6953 32.0759H98.3053C98.4747 32.0759 98.5931 32.2417 98.542 32.4024C96.8785 37.6834 91.6224 39.9575 86.5532 39.9575ZM80.0236 24.2442H92.223C92.3738 24.2442 92.4897 24.1108 92.4697 23.96C92.0672 20.7351 89.5975 18.6354 86.2143 18.6354C83.018 18.6354 80.3239 20.6005 79.7769 23.9526C79.752 24.1058 79.8691 24.2442 80.0236 24.2442Z" fill="black"/>
<path d="M109.442 19.3694V39.1775C109.442 39.3145 109.33 39.4267 109.193 39.4267H103.648C103.511 39.4267 103.399 39.3145 103.399 39.1775V19.3694C103.399 19.2323 103.286 19.1202 103.149 19.1202H99.3449C99.2079 19.1202 99.0957 19.008 99.0957 18.8709V14.6317C99.0957 14.4946 99.2079 14.3825 99.3449 14.3825H103.149C103.286 14.3825 103.399 14.2703 103.399 14.1332V11.6747C103.399 6.16315 106.397 4.51953 110.99 4.51953C112.493 4.51953 113.567 4.56315 114.858 4.60801C114.992 4.61299 115.099 4.72265 115.099 4.85723V9.14009C115.099 9.2834 114.981 9.39679 114.838 9.38931C113.998 9.3457 113.122 9.30582 112.247 9.30582C110.652 9.30582 109.443 9.78931 109.443 12.0622V14.1332C109.443 14.2703 109.556 14.3825 109.693 14.3825H114.851C114.989 14.3825 115.101 14.4946 115.101 14.6317V18.8709C115.101 19.008 114.989 19.1202 114.851 19.1202H109.693C109.553 19.1202 109.442 19.2311 109.442 19.3694ZM118.709 4.61548H124.399C124.536 4.61548 124.648 4.72763 124.648 4.8647V39.1775C124.648 39.3145 124.536 39.4267 124.399 39.4267H118.709C118.572 39.4267 118.46 39.3145 118.46 39.1775V4.8647C118.46 4.72639 118.572 4.61548 118.709 4.61548Z" fill="black"/>
<path fill-rule="evenodd" clip-rule="evenodd" d="M5.13473 22.5309L21.5709 6.09475C21.6406 6.015 21.6656 5.90534 21.6319 5.80441L20.6625 2.83867C20.5927 2.62559 20.3223 2.56328 20.1615 2.72403L14.3472 8.53836V1.72216C14.3472 1.60877 14.2836 1.50534 14.1827 1.45425L11.4002 0.0424118C11.2008 -0.0585228 10.9653 0.088518 10.9653 0.315309V8.53712L6.14657 3.71842C6.06682 3.63867 5.94844 3.61001 5.84002 3.6449L2.87429 4.61437C2.66121 4.68416 2.5989 4.95456 2.75965 5.11531L8.57398 10.9296H1.75903C1.64563 10.9296 1.54221 10.9932 1.49112 11.0941L0.0792771 13.8767C-0.0216575 14.0761 0.125383 14.3116 0.352175 14.3116H8.57398L3.75529 19.1303C3.67554 19.21 3.64688 19.3284 3.68177 19.4368L4.65124 22.4025C4.71728 22.6094 4.97274 22.6717 5.13473 22.5309Z" fill="black"/>
<path fill-rule="evenodd" clip-rule="evenodd" d="M24.9614 10.9297H19.2517C19.172 10.9297 19.096 10.9608 19.0386 11.0182L11.0523 19.0045C10.9963 19.0605 10.9639 19.1378 10.9639 19.2175V23.5203C10.9639 23.6337 11.0274 23.7372 11.1284 23.7883L13.9109 25.2001C14.1103 25.301 14.3458 25.154 14.3458 24.9272V16.7054L19.1645 21.5241C19.2442 21.6038 19.3626 21.6325 19.471 21.5976L22.4368 20.6281C22.6498 20.5583 22.7122 20.2879 22.5514 20.1272L16.7371 14.3129H23.552C23.6654 14.3129 23.7689 14.2493 23.8199 14.1484L25.2318 11.3658C25.3365 11.164 25.1882 10.9297 24.9614 10.9297Z" fill="black"/>
<path d="M127.358 37.9315C127.358 37.0941 128.024 36.4287 128.854 36.4287C129.676 36.4287 130.357 37.0642 130.357 37.9315C130.357 38.7614 129.669 39.4268 128.854 39.4268C128.016 39.4268 127.358 38.7614 127.358 37.9315ZM130.02 37.9315C130.02 37.3035 129.497 36.7353 128.854 36.7353C128.203 36.7353 127.687 37.296 127.687 37.9315C127.687 38.5596 128.211 39.1203 128.854 39.1203C129.497 39.1203 130.02 38.5745 130.02 37.9315ZM128.607 38.1259V38.6867H128.271V37.1539H128.996C129.325 37.1539 129.497 37.3782 129.497 37.6324C129.497 37.8567 129.362 37.9988 129.198 38.0586V38.0661C129.22 38.096 129.235 38.1184 129.28 38.2156L129.542 38.6867H129.153L128.884 38.1857C128.861 38.1334 128.846 38.1259 128.786 38.1259H128.607ZM128.607 37.8418H128.914C129.071 37.8418 129.145 37.767 129.145 37.6399C129.145 37.5128 129.063 37.4306 128.914 37.4306H128.607V37.8418Z" fill="black"/>
</g>
<defs>
<clipPath id="clip0_12838_29267">
<rect width="130.467" height="40" fill="white"/>
</clipPath>
</defs>
</svg>
